<svg width="40" height="40" viewBox="0 0 40 40" fill="none" xmlns="http://www.w3.org/2000/svg">
  <path d="M31.8812 0H8.11881C3.63492 0 0 3.59114 0 8.02103V31.4972C0 35.9271 3.63492 39.5183 8.11881 39.5183H31.8812C36.3651 39.5183 40 35.9271 40 31.4972V8.02103C40 3.59114 36.3651 0 31.8812 0Z" fill="url(#paint0_radial_1_446)"/>
  <path d="M27.7071 13.2721L27.4122 13.3745L11.4076 18.8992C11.2942 18.9328 11.1957 19.0015 11.1274 19.0945C11.0591 19.1876 11.025 19.2997 11.0303 19.4133C11.0357 19.527 11.0803 19.6357 11.1571 19.7224C11.2339 19.8091 11.3385 19.869 11.4546 19.8927L15.5975 20.9793L16.3704 23.1525L17.1432 25.3257C17.1876 25.4323 17.2585 25.5268 17.3497 25.6012C17.4409 25.6755 17.5496 25.7274 17.6665 25.7523C17.7834 25.7773 17.9048 25.7745 18.0203 25.7442C18.1358 25.714 18.2418 25.6572 18.3292 25.5788L20.4695 23.6415L24.6724 26.372C25.186 26.7073 25.9183 26.4589 26.0496 25.9063L28.8331 14.1227C28.9692 13.5391 28.3276 13.0594 27.7071 13.2721ZM25.664 15.8877L18.4329 21.5505L18.0927 21.8175C18.0179 21.8743 17.9691 21.9567 17.9566 22.0473L17.8804 22.6496L17.6714 24.3416C17.6731 24.3622 17.6663 24.3826 17.6523 24.3983C17.6383 24.414 17.6184 24.4238 17.5969 24.4254C17.5754 24.4271 17.5541 24.4205 17.5377 24.4071C17.5213 24.3937 17.5111 24.3746 17.5094 24.354L16.9213 22.6635L16.3137 20.9327C16.288 20.8549 16.2914 20.771 16.3233 20.6953C16.3553 20.6197 16.4137 20.5571 16.4887 20.5182L24.013 16.386L25.429 15.6098C25.6348 15.495 25.8454 15.7449 25.664 15.8877Z" fill="url(#paint1_linear_1_446)"/>
  <defs>
    <radialGradient id="paint0_radial_1_446" cx="0" cy="0" r="1" gradientUnits="userSpaceOnUse" gradientTransform="translate(4.15841 3.3258) scale(47.7505 47.1754)">
      <stop stop-color="#3D3D3D"/>
      <stop offset="1" stop-color="#141414"/>
    </radialGradient>
    <linearGradient id="paint1_linear_1_446" x1="11.028" y1="19.8754" x2="28.8472" y2="19.8754" gradientUnits="userSpaceOnUse">
      <stop stop-color="#9F734C"/>
      <stop offset="0.13" stop-color="#BA945E"/>
      <stop offset="0.28" stop-color="#D1B16E"/>
      <stop offset="0.42" stop-color="#E2C579"/>
      <stop offset="0.56" stop-color="#ECD180"/>
      <stop offset="0.7" stop-color="#F0D683"/>
      <stop offset="0.75" stop-color="#E7CC7D"/>
      <stop offset="0.84" stop-color="#D2B16E"/>
      <stop offset="0.95" stop-color="#AF8757"/>
      <stop offset="1" stop-color="#9F734C"/>
    </linearGradient>
  </defs>
</svg>