<svg width="40" height="40" viewBox="0 0 40 40" fill="none" xmlns="http://www.w3.org/2000/svg">
  <path d="M31.8812 0H8.11881C3.63492 0 0 3.59114 0 8.02103V31.4972C0 35.9271 3.63492 39.5183 8.11881 39.5183H31.8812C36.3651 39.5183 40 35.9271 40 31.4972V8.02103C40 3.59114 36.3651 0 31.8812 0Z" fill="url(#paint0_radial_1_453)"/>
  <path d="M9.98822 14.7117C10.9268 14.7117 12.9308 14.7117 13.6041 14.7117C13.7427 14.7117 13.8694 14.7938 13.9288 14.919C14.7605 16.7032 15.7704 18.3192 16.9902 19.7434C17.0932 19.9116 17.3466 19.8921 17.4258 19.7121C17.806 18.7965 18.511 16.5702 17.1486 14.9856C17.0258 14.8447 17.0773 14.6217 17.2476 14.5512C18.6258 13.9839 19.9763 13.9017 21.2872 14.4808C21.5645 14.6021 21.7427 14.8721 21.7427 15.1734L22.0516 19.7591C22.0516 19.9625 22.2417 20.1268 22.4437 20.0838C23.9565 19.7669 24.8476 17.5288 25.7268 15.1929C25.8338 14.9034 26.111 14.7117 26.4199 14.7117H29.7506C30.0239 14.7117 30.2417 14.9503 30.1942 15.2164C29.8813 16.8754 28.1942 19.0235 27.311 20.0564C27.006 20.4125 27.0021 20.9368 27.311 21.2928L30.2892 24.7947C30.5031 25.0451 30.3209 25.4286 29.9882 25.4286H26.2179C25.909 25.4286 25.612 25.2994 25.4021 25.0764L22.7645 22.9088C22.6258 22.7601 22.3684 22.7092 22.2417 22.8618C21.9169 23.2531 21.9407 23.7383 21.7862 24.8377C21.7387 25.1821 21.4258 25.4286 21.0734 25.4286H18.4951C18.1268 25.4286 17.7664 25.3542 17.4338 25.1977C15.9565 24.5052 11.913 22.048 9.64366 15.1773C9.56842 14.9464 9.74267 14.7078 9.98822 14.7078V14.7117Z" fill="url(#paint1_linear_1_453)"/>
  <defs>
    <radialGradient id="paint0_radial_1_453" cx="0" cy="0" r="1" gradientUnits="userSpaceOnUse" gradientTransform="translate(4.15841 3.3258) scale(47.7505 47.1754)">
      <stop stop-color="#3D3D3D"/>
      <stop offset="1" stop-color="#141414"/>
    </radialGradient>
    <linearGradient id="paint1_linear_1_453" x1="9.62386" y1="19.7591" x2="30.3763" y2="19.7591" gradientUnits="userSpaceOnUse">
      <stop stop-color="#9F734C"/>
      <stop offset="0.13" stop-color="#BA945E"/>
      <stop offset="0.28" stop-color="#D1B16E"/>
      <stop offset="0.42" stop-color="#E2C579"/>
      <stop offset="0.56" stop-color="#ECD180"/>
      <stop offset="0.7" stop-color="#F0D683"/>
      <stop offset="0.75" stop-color="#E7CC7D"/>
      <stop offset="0.84" stop-color="#D2B16E"/>
      <stop offset="0.95" stop-color="#AF8757"/>
      <stop offset="1" stop-color="#9F734C"/>
    </linearGradient>
  </defs>
</svg>